<svg width="21" height="24" viewBox="0 0 21 24" fill="none" xmlns="http://www.w3.org/2000/svg">
<path d="M18.9197 7.80227L14.9562 3.83878L14.6026 3.48522L14.2491 3.83878L12 6.08778L10.1046 4.19233L13.2252 1.07171C13.9875 0.309429 15.23 0.309429 15.9923 1.07171L18.594 3.67347C18.5942 3.67364 18.5944 3.67381 18.5945 3.67398C19.1908 4.27318 19.5255 5.08409 19.5255 5.92942C19.5255 6.60606 19.311 7.26066 18.9197 7.80227ZM4.26849 13.8193L4.26847 13.8193L4.26548 13.8224C3.75104 14.3457 2.90375 14.3501 2.37303 13.8193L2.01948 14.1729L2.37303 13.8193C1.844 13.2903 1.844 12.4407 2.37303 11.9116L5.05087 9.23378L6.94799 11.1398L4.26849 13.8193Z" stroke="white"/>
<path d="M13.2252 8.02008L13.7426 7.50264L16.8509 10.622L16.8516 10.6226C16.9188 10.6899 16.9721 10.7697 17.0085 10.8575C17.0449 10.9453 17.0636 11.0395 17.0636 11.1346C17.0636 11.2296 17.0449 11.3238 17.0085 11.4116C16.9721 11.4994 16.9188 11.5793 16.8516 11.6465C16.7843 11.7137 16.7045 11.767 16.6167 11.8034C16.5289 11.8398 16.4347 11.8585 16.3397 11.8585C16.2446 11.8585 16.1504 11.8398 16.0626 11.8034C15.9748 11.767 15.895 11.7137 15.8277 11.6465L15.4742 11.2929L15.1206 11.6465L3.83878 22.9283C3.07649 23.6906 1.834 23.6906 1.07171 22.9283C0.309429 22.166 0.309429 20.9235 1.07171 20.1613L8.87939 12.3536L9.751 11.482L10.1046 11.1284L9.751 10.7749L5.84716 6.87103L5.84717 6.87102L5.845 6.86887C5.71985 6.74525 5.62049 6.59801 5.55268 6.43569C5.48486 6.27338 5.44994 6.09921 5.44994 5.9233C5.44994 5.74739 5.48486 5.57322 5.55268 5.41091C5.62049 5.24859 5.71985 5.10135 5.845 4.97772L5.84504 4.97776L5.85017 4.97254C6.36407 4.44978 7.20908 4.44529 7.73966 4.98487L7.73964 4.98488L7.74262 4.98785L11.6465 8.89169L12 9.24524L12.3536 8.89169L13.2252 8.02008Z" stroke="white"/>
</svg>
