<svg width="19" height="22" viewBox="0 0 19 22" fill="none" xmlns="http://www.w3.org/2000/svg">
<path d="M5.6875 8V4.5C5.6875 4.04037 5.7818 3.58525 5.96502 3.16061C6.14824 2.73597 6.41679 2.35013 6.75534 2.02513C7.09389 1.70012 7.4958 1.44231 7.93813 1.26642C8.38047 1.09053 8.85456 1 9.33333 1C9.81211 1 10.2862 1.09053 10.7285 1.26642C11.1709 1.44231 11.5728 1.70012 11.9113 2.02513C12.2499 2.35013 12.5184 2.73597 12.7016 3.16061C12.8849 3.58525 12.9792 4.04037 12.9792 4.5V8" stroke="white" stroke-linecap="round" stroke-linejoin="round"/>
<path d="M16.625 6H2.04167C1.46637 6 1 6.44772 1 7V20C1 20.5523 1.46637 21 2.04167 21H16.625C17.2003 21 17.6667 20.5523 17.6667 20V7C17.6667 6.44772 17.2003 6 16.625 6Z" stroke="white" stroke-linecap="round" stroke-linejoin="round"/>
<path d="M9.5 10L10.5204 12.0955L12.8287 12.4184L11.151 14.0365L11.5572 16.3316L9.5 15.236L7.44275 16.3316L7.84897 14.0365L6.1713 12.4184L8.4796 12.0955L9.5 10Z" fill="white"/>
</svg>
