<svg width="25" height="18" viewBox="0 0 25 18" fill="none" xmlns="http://www.w3.org/2000/svg">
<path d="M8.49313 6.92861H10.5646V7.21432H8.49313H7.99313V7.71432V9.78575H7.70741V7.71432V7.21432H7.20741H5.13599V6.92861H7.20741H7.70741V6.42861V4.35718H7.99313V6.42861V6.92861H8.49313ZM16.2074 5.92861C15.7764 5.92861 15.4217 5.57389 15.4217 5.14289C15.4217 4.71189 15.7764 4.35718 16.2074 4.35718C16.6384 4.35718 16.9931 4.71189 16.9931 5.14289C16.9931 5.57389 16.6384 5.92861 16.2074 5.92861ZM18.7788 9.78575C18.3478 9.78575 17.9931 9.43103 17.9931 9.00003C17.9931 8.56903 18.3478 8.21432 18.7788 8.21432C19.2098 8.21432 19.5646 8.56903 19.5646 9.00003C19.5646 9.43103 19.2098 9.78575 18.7788 9.78575Z" stroke="white"/>
<path d="M24.1725 14.3293L24.1725 14.329L22.7711 4.48083L24.1725 14.3293ZM24.1725 14.3293C24.4122 16.007 23.1171 17.5 21.4146 17.5C20.6871 17.5 19.9782 17.2065 19.4539 16.6822L16.561 13.7893L16.4146 13.6429M24.1725 14.3293L16.4146 13.6429M16.4146 13.6429H16.2075M16.4146 13.6429H16.2075M16.2075 13.6429H8.4932H8.28674M16.2075 13.6429H8.28674M8.28674 13.6429L8.14043 13.7885M8.28674 13.6429L8.14043 13.7885M8.14043 13.7885L5.23472 16.6814L5.23369 16.6824M8.14043 13.7885L5.23369 16.6824M5.23369 16.6824C4.82233 17.0943 4.29173 17.3663 3.71713 17.4597C3.14253 17.5532 2.55309 17.4634 2.0324 17.203C1.51171 16.9427 1.08619 16.525 0.816188 16.0093C0.546186 15.4935 0.445402 14.9059 0.528128 14.3296L0.528216 14.329M5.23369 16.6824L0.528216 14.329M0.528216 14.329L1.92964 4.48044L1.92966 4.48036M0.528216 14.329L1.92966 4.48036M1.92966 4.48036C2.25445 2.1952 4.21522 0.500005 6.52606 0.500005L18.1746 0.500005L18.1752 0.500005M1.92966 4.48036L18.1752 0.500005M18.1752 0.500005C19.2922 0.498806 20.3722 0.900825 21.2165 1.63217M18.1752 0.500005L21.2165 1.63217M21.2165 1.63217C22.0608 2.36343 22.6127 3.37481 22.771 4.48044L21.2165 1.63217Z" stroke="white"/>
</svg>
