<svg width="21" height="22" viewBox="0 0 21 22" fill="none" xmlns="http://www.w3.org/2000/svg">
<path d="M13.756 3.3L12.1246 6.1H8.87536L7.24399 3.3L8.87536 0.5H12.1246L13.756 3.3ZM7.24399 11L8.87536 8.2H12.1246L13.756 11L12.1246 13.8H8.87536L7.24399 11ZM20.4221 7.161L18.7998 9.961H15.5407L13.9093 7.161L15.5407 4.361H18.7998L20.4221 7.161ZM13.9093 14.861L15.5407 12.061H18.7998L20.4221 14.861L18.7998 17.661H15.5407L13.9093 14.861ZM5.45934 9.961H2.20017L0.577862 7.161L2.20017 4.361H5.45933L7.0907 7.161L5.45934 9.961ZM0.577862 14.861L2.20017 12.061H5.45934L7.09071 14.861L5.45934 17.661H2.20017L0.577862 14.861ZM8.87536 21.5L7.24399 18.7L8.87536 15.9H12.1246L13.756 18.7L12.1246 21.5H8.87536Z" stroke="#F7F7F7"/>
</svg>
