<svg width="16" height="12" viewBox="0 0 16 12" fill="none" xmlns="http://www.w3.org/2000/svg">
<path d="M12.6793 0.380862C12.9387 0.133874 13.284 -0.00267064 13.6422 3.95872e-05C14.0004 0.00274982 14.3435 0.144503 14.5991 0.395388C14.8548 0.646273 15.003 0.986667 15.0125 1.34474C15.0219 1.70282 14.8919 2.05057 14.6499 2.31461L7.30166 11.5045C7.1753 11.6406 7.0228 11.7498 6.85327 11.8256C6.68374 11.9015 6.50066 11.9423 6.31499 11.9457C6.12931 11.9492 5.94485 11.9151 5.77263 11.8457C5.60041 11.7762 5.44397 11.6727 5.31266 11.5414L0.43962 6.66831C0.303914 6.54185 0.195068 6.38936 0.119575 6.21993C0.0440811 6.0505 0.0034872 5.8676 0.000214959 5.68214C-0.00305728 5.49668 0.0310593 5.31246 0.100529 5.14047C0.169998 4.96848 0.273398 4.81224 0.404558 4.68108C0.535719 4.54992 0.691955 4.44652 0.863944 4.37705C1.03593 4.30758 1.22015 4.27346 1.40561 4.27674C1.59108 4.28001 1.77398 4.3206 1.94341 4.3961C2.11284 4.47159 2.26533 4.58044 2.39178 4.71614L6.24823 8.57075L12.6443 0.421379C12.6558 0.4072 12.6681 0.393673 12.6812 0.380862H12.6793Z" fill="#794194"/>
</svg>
