<svg width="24" height="19" viewBox="0 0 24 19" fill="none" xmlns="http://www.w3.org/2000/svg">
<path fill-rule="evenodd" clip-rule="evenodd" d="M9.93981 16C10.2086 15.5638 10.3636 15.05 10.3636 14.5C10.3636 13.95 10.2086 13.4362 9.93981 13H22.5C23.3284 13 24 13.6716 24 14.5C24 15.3284 23.3284 16 22.5 16H9.93981ZM5.06017 16H1.5C0.671573 16 0 15.3284 0 14.5C0 13.6716 0.671573 13 1.5 13H5.06017C4.7914 13.4362 4.63635 13.95 4.63635 14.5C4.63635 15.05 4.7914 15.5638 5.06017 16Z" fill="#C4C4C4"/>
<path fill-rule="evenodd" clip-rule="evenodd" d="M7.5 19C9.98528 19 12 16.9853 12 14.5C12 12.0147 9.98528 10 7.5 10C5.01472 10 3 12.0147 3 14.5C3 16.9853 5.01472 19 7.5 19ZM7.5 17.3636C9.08154 17.3636 10.3636 16.0815 10.3636 14.5C10.3636 12.9185 9.08154 11.6364 7.5 11.6364C5.91846 11.6364 4.63636 12.9185 4.63636 14.5C4.63636 16.0815 5.91846 17.3636 7.5 17.3636Z" fill="#C4C4C4"/>
<path fill-rule="evenodd" clip-rule="evenodd" d="M14.0602 3C13.7914 3.43624 13.6364 3.95001 13.6364 4.5C13.6364 5.04999 13.7914 5.56376 14.0602 6L1.5 6C0.671574 6 5.87108e-08 5.32842 1.31134e-07 4.5C2.03558e-07 3.67157 0.671574 3 1.5 3L14.0602 3ZM18.9398 3L22.5 3C23.3284 3 24 3.67157 24 4.5C24 5.32843 23.3284 6 22.5 6L18.9398 6C19.2086 5.56376 19.3636 5.04999 19.3636 4.5C19.3636 3.95001 19.2086 3.43624 18.9398 3Z" fill="#C4C4C4"/>
<path fill-rule="evenodd" clip-rule="evenodd" d="M16.5 -3.93402e-07C14.0147 -6.10673e-07 12 2.01472 12 4.5C12 6.98528 14.0147 9 16.5 9C18.9853 9 21 6.98528 21 4.5C21 2.01472 18.9853 -1.76132e-07 16.5 -3.93402e-07ZM16.5 1.63636C14.9185 1.63636 13.6364 2.91846 13.6364 4.5C13.6364 6.08154 14.9185 7.36364 16.5 7.36364C18.0815 7.36364 19.3636 6.08154 19.3636 4.5C19.3636 2.91846 18.0815 1.63636 16.5 1.63636Z" fill="#C4C4C4"/>
</svg>
